<?xml version="1.0" encoding="UTF-8"?>
<svg xmlns="http://www.w3.org/2000/svg" width="409.546" height="346.744" viewBox="-45.963 -19.9995 409.546 346.744">
  <text x="-40.963" y="-9.99955" font-size="8" fill="black">Polygon A(id=30) vs B(id=68)</text>
  <polygon points="343.583,275.01 343.583,281.787 320.321,281.787 327.022,293.726 320.929,304.482 288.894,306.744 288.894,299.966 313.769,299.683 319.226,297.138 321.4,291.339 314.622,282.25 288.895,281.788 288.895,275.01 343.583,275.01" fill="lightcoral" fill-opacity="0.5" stroke="red" stroke-width="1"/>
  <polygon points="288.894,257.373 314.857,257.373 314.857,275.01 288.894,275.01 288.894,257.373" fill="lightblue" fill-opacity="0.5" stroke="blue" stroke-width="1"/>
  <polygon points="54.689,24.4144 38.128,24.4144 38.128,36.3534 32.0345,47.1091 0,49.3714 -25.963,49.3714 -25.963,42.5934 -25.963,31.7345 -25.963,24.9565 -7.52982,24.7465 -25.962,24.4154 -25.962,17.6374 -25.962,6.77845 -25.962,0.000450717 0.000999549,0.000450717 28.726,0.000450717 54.689,0.000450717 54.689,6.77745 54.689,17.6374 54.689,24.4144" fill="lightgreen" fill-opacity="0.3" stroke="green" stroke-width="0.5"/>
</svg>
