<?xml version="1.0" encoding="UTF-8"?>
<svg xmlns="http://www.w3.org/2000/svg" width="491.014" height="406.307" viewBox="-81.9958 -49.7207 491.014 406.307">
  <text x="-76.9958" y="-39.7207" font-size="8" fill="black">Polygon A(id=39) vs B(id=60)</text>
  <polygon points="333.723,316.404 348.127,299.304 356.291,299.304 341.888,314.632 358.294,336.585 350.053,336.585 337.189,318.715 333.723,322.567 333.723,336.586 327.022,336.586 327.022,281.897 333.723,281.897 333.723,316.404" fill="lightcoral" fill-opacity="0.5" stroke="red" stroke-width="1"/>
  <polygon points="381.939,286.751 389.018,295.626 386.488,306.692 376.262,311.618 366.039,306.692 363.51,295.626 370.592,286.751 381.939,286.751" fill="lightblue" fill-opacity="0.5" stroke="blue" stroke-width="1"/>
  <polygon points="-5.21582,40.9593 -12.2978,49.8343 -20.5388,49.8343 -23.6448,49.8343 -31.8858,49.8343 -34.3764,46.7118 -36.8688,49.8353 -43.5698,49.8353 -48.2158,49.8353 -54.9168,49.8353 -61.9958,40.9603 -61.9958,-13.7287 -59.4658,-24.7947 -49.2398,-29.7207 -42.5388,-29.7207 -32.3158,-24.7947 -29.7868,-13.7287 -29.7868,-11.5179 -28.1348,-12.3137 -19.9708,-12.3137 -9.74782,-7.38773 -7.21882,3.67827 -14.3008,12.5533 -17.8671,16.3486 -7.74482,29.8933 -5.21582,40.9593" fill="lightgreen" fill-opacity="0.3" stroke="green" stroke-width="0.5"/>
</svg>
