<?xml version="1.0" encoding="UTF-8"?>
<svg xmlns="http://www.w3.org/2000/svg" width="51.272" height="74.689" viewBox="317.022 271.897 51.272 74.689">
  <polygon points="333.723,316.404 348.127,299.304 356.291,299.304 341.888,314.632 358.294,336.585 350.053,336.585 337.189,318.715 333.723,322.567 333.723,336.586 327.022,336.586 327.022,281.897 333.723,281.897 333.723,316.404" fill="lightblue" stroke="blue" stroke-width="0.5"/>
  <circle cx="333.723" cy="316.404" r="0.5" fill="red"/>
  <text x="334.723" y="315.404" font-size="3" fill="black">0</text>
  <circle cx="348.127" cy="299.304" r="0.5" fill="red"/>
  <text x="349.127" y="298.304" font-size="3" fill="black">1</text>
  <circle cx="356.291" cy="299.304" r="0.5" fill="red"/>
  <text x="357.291" y="298.304" font-size="3" fill="black">2</text>
  <circle cx="341.888" cy="314.632" r="0.5" fill="red"/>
  <text x="342.888" y="313.632" font-size="3" fill="black">3</text>
  <circle cx="358.294" cy="336.585" r="0.5" fill="red"/>
  <text x="359.294" y="335.585" font-size="3" fill="black">4</text>
  <circle cx="350.053" cy="336.585" r="0.5" fill="red"/>
  <text x="351.053" y="335.585" font-size="3" fill="black">5</text>
  <circle cx="337.189" cy="318.715" r="0.5" fill="red"/>
  <text x="338.189" y="317.715" font-size="3" fill="black">6</text>
  <circle cx="333.723" cy="322.567" r="0.5" fill="red"/>
  <text x="334.723" y="321.567" font-size="3" fill="black">7</text>
  <circle cx="333.723" cy="336.586" r="0.5" fill="red"/>
  <text x="334.723" y="335.586" font-size="3" fill="black">8</text>
  <circle cx="327.022" cy="336.586" r="0.5" fill="red"/>
  <text x="328.022" y="335.586" font-size="3" fill="black">9</text>
  <circle cx="327.022" cy="281.897" r="0.5" fill="red"/>
  <text x="328.022" y="280.897" font-size="3" fill="black">10</text>
  <circle cx="333.723" cy="281.897" r="0.5" fill="red"/>
  <text x="334.723" y="280.897" font-size="3" fill="black">11</text>
  <circle cx="333.723" cy="316.404" r="0.5" fill="red"/>
  <text x="334.723" y="315.404" font-size="3" fill="black">12</text>
</svg>
