<?xml version="1.0" encoding="UTF-8"?>
<svg xmlns="http://www.w3.org/2000/svg" width="74.689" height="51.734" viewBox="278.894 265.01 74.689 51.734">
  <polygon points="343.583,275.01 343.583,281.787 320.321,281.787 327.022,293.726 320.929,304.482 288.894,306.744 288.894,299.966 313.769,299.683 319.226,297.138 321.4,291.339 314.622,282.25 288.895,281.788 288.895,275.01 343.583,275.01" fill="lightblue" stroke="blue" stroke-width="0.5"/>
  <circle cx="343.583" cy="275.01" r="0.5" fill="red"/>
  <text x="344.583" y="274.01" font-size="3" fill="black">0</text>
  <circle cx="343.583" cy="281.787" r="0.5" fill="red"/>
  <text x="344.583" y="280.787" font-size="3" fill="black">1</text>
  <circle cx="320.321" cy="281.787" r="0.5" fill="red"/>
  <text x="321.321" y="280.787" font-size="3" fill="black">2</text>
  <circle cx="327.022" cy="293.726" r="0.5" fill="red"/>
  <text x="328.022" y="292.726" font-size="3" fill="black">3</text>
  <circle cx="320.929" cy="304.482" r="0.5" fill="red"/>
  <text x="321.929" y="303.482" font-size="3" fill="black">4</text>
  <circle cx="288.894" cy="306.744" r="0.5" fill="red"/>
  <text x="289.894" y="305.744" font-size="3" fill="black">5</text>
  <circle cx="288.894" cy="299.966" r="0.5" fill="red"/>
  <text x="289.894" y="298.966" font-size="3" fill="black">6</text>
  <circle cx="313.769" cy="299.683" r="0.5" fill="red"/>
  <text x="314.769" y="298.683" font-size="3" fill="black">7</text>
  <circle cx="319.226" cy="297.138" r="0.5" fill="red"/>
  <text x="320.226" y="296.138" font-size="3" fill="black">8</text>
  <circle cx="321.4" cy="291.339" r="0.5" fill="red"/>
  <text x="322.4" y="290.339" font-size="3" fill="black">9</text>
  <circle cx="314.622" cy="282.25" r="0.5" fill="red"/>
  <text x="315.622" y="281.25" font-size="3" fill="black">10</text>
  <circle cx="288.895" cy="281.788" r="0.5" fill="red"/>
  <text x="289.895" y="280.788" font-size="3" fill="black">11</text>
  <circle cx="288.895" cy="275.01" r="0.5" fill="red"/>
  <text x="289.895" y="274.01" font-size="3" fill="black">12</text>
  <circle cx="343.583" cy="275.01" r="0.5" fill="red"/>
  <text x="344.583" y="274.01" font-size="3" fill="black">13</text>
</svg>
