<?xml version="1.0" encoding="UTF-8"?>
<svg xmlns="http://www.w3.org/2000/svg" width="474.862" height="365.351" viewBox="-63.087 -97.4711 474.862 365.351">
  <text x="-58.087" y="-87.4711" font-size="8" fill="black">Polygon A(id=45) vs B(id=55)</text>
  <polygon points="345.559,193.056 345.559,208.846 339.859,208.846 339.859,170.409 345.559,170.409 345.559,186.276 391.775,186.276 391.775,193.055 345.559,193.056" fill="lightcoral" fill-opacity="0.5" stroke="red" stroke-width="1"/>
  <polygon points="375.868,223.011 382.946,231.888 380.419,242.955 370.193,247.88 359.97,242.955 357.441,231.888 364.521,223.011 375.868,223.011" fill="lightblue" fill-opacity="0.5" stroke="blue" stroke-width="1"/>
  <polygon points="34.334,-38.8331 27.254,-29.9561 -11.882,-29.9553 -11.882,-23.0421 -18.962,-14.1651 -24.662,-14.1651 -30.309,-14.1651 -36.009,-14.1651 -43.087,-23.0421 -43.087,-61.4791 -40.56,-72.5461 -30.334,-77.4711 -24.634,-77.4711 -14.411,-72.5461 -11.9105,-61.6041 21.582,-61.6041 31.805,-56.6791 34.334,-45.6121 34.334,-38.8331" fill="lightgreen" fill-opacity="0.3" stroke="green" stroke-width="0.5"/>
</svg>
