<?xml version="1.0" encoding="UTF-8"?>
<svg xmlns="http://www.w3.org/2000/svg" width="71.916" height="58.437" viewBox="329.859 160.409 71.916 58.437">
  <polygon points="345.559,193.056 345.559,208.846 339.859,208.846 339.859,170.409 345.559,170.409 345.559,186.276 391.775,186.276 391.775,193.055 345.559,193.056" fill="lightblue" stroke="blue" stroke-width="0.5"/>
  <circle cx="345.559" cy="193.056" r="0.5" fill="red"/>
  <text x="346.559" y="192.056" font-size="3" fill="black">0</text>
  <circle cx="345.559" cy="208.846" r="0.5" fill="red"/>
  <text x="346.559" y="207.846" font-size="3" fill="black">1</text>
  <circle cx="339.859" cy="208.846" r="0.5" fill="red"/>
  <text x="340.859" y="207.846" font-size="3" fill="black">2</text>
  <circle cx="339.859" cy="170.409" r="0.5" fill="red"/>
  <text x="340.859" y="169.409" font-size="3" fill="black">3</text>
  <circle cx="345.559" cy="170.409" r="0.5" fill="red"/>
  <text x="346.559" y="169.409" font-size="3" fill="black">4</text>
  <circle cx="345.559" cy="186.276" r="0.5" fill="red"/>
  <text x="346.559" y="185.276" font-size="3" fill="black">5</text>
  <circle cx="391.775" cy="186.276" r="0.5" fill="red"/>
  <text x="392.775" y="185.276" font-size="3" fill="black">6</text>
  <circle cx="391.775" cy="193.055" r="0.5" fill="red"/>
  <text x="392.775" y="192.055" font-size="3" fill="black">7</text>
  <circle cx="345.559" cy="193.056" r="0.5" fill="red"/>
  <text x="346.559" y="192.056" font-size="3" fill="black">8</text>
</svg>
