<?xml version="1.0" encoding="UTF-8"?>
<svg xmlns="http://www.w3.org/2000/svg" width="452.135" height="179.307" viewBox="-45.2485 1.50358 452.135 179.307">
  <text x="-40.2485" y="11.5036" font-size="8" fill="black">Polygon A(id=57) vs B(id=58)</text>
  <polygon points="361.638,142.38 370.515,135.304 381.58,137.831 386.506,148.058 381.58,158.281 370.515,160.81 361.638,153.729 361.638,142.38" fill="lightcoral" fill-opacity="0.5" stroke="red" stroke-width="1"/>
  <polygon points="362.018,95.3705 370.895,88.2935 381.96,90.8235 386.886,101.049 381.96,111.272 370.895,113.801 362.018,106.72 362.018,95.3705" fill="lightblue" fill-opacity="0.5" stroke="blue" stroke-width="1"/>
  <polygon points="24.4875,52.6876 19.5615,62.9106 10.6845,69.9876 -0.380544,72.5166 -11.4455,69.9866 -20.3225,62.9056 -25.2485,52.6806 -25.2485,41.3316 -20.3225,31.1086 -11.4455,24.0326 -0.380544,21.5036 10.6845,24.0306 19.5615,31.1116 24.4875,41.3386 24.4875,52.6876" fill="lightgreen" fill-opacity="0.3" stroke="green" stroke-width="0.5"/>
</svg>
